<svg id="Layer_1" data-name="Layer 1" xmlns="http://www.w3.org/2000/svg" viewBox="0 0 23.55 38"><defs><style>.cls-1{fill:#73000a;}</style></defs><title>ornament_fan</title><path class="cls-1" d="M17.55,19h0c-4.65-.66-10-6-11-7.6H0a14,14,0,0,0,5.53,5.27C8,18.1,14,19,14,19h0S8,19.9,5.53,21.33A14,14,0,0,0,0,26.6H6.51C7.54,25,12.9,19.66,17.55,19Z"/><path class="cls-1" d="M10.84,12.54A57.69,57.69,0,0,0,22.05,19a57.69,57.69,0,0,0-11.21,6.46C7.42,28.1,2.63,34.56,1.73,38H10.3s.51-6.33,4-10.61C17.42,23.55,23.55,19,23.55,19s-6.13-4.55-9.25-8.39C10.81,6.33,10.3,0,10.3,0H1.73C2.63,3.44,7.42,9.9,10.84,12.54Z"/></svg>